<svg width="48" height="48" fill="none" xmlns="http://www.w3.org/2000/svg"><path fill-rule="evenodd" clip-rule="evenodd" d="M39.534 22.687c.113-.598.473-2.034.497-2.11.024-.078.044-.157.059-.235A11.995 11.995 0 0046 10c0-1.183-.129-2.057-.43-2.963l-.014-.044c-.035-.103-.06-.181-.088-.259-.085-.237-.185-.468-.592-1.41l-.024-.057a2 2 0 10-3.672 1.588l.02.044c.38.883.456 1.057.52 1.237l.048.144.007.02c.159.478.225.929.225 1.7a8 8 0 11-16 0c0-.552-.224-1.052-.586-1.414A2 2 0 0022 10a8 8 0 11-16 0c0-.771.066-1.222.226-1.7l.006-.02.049-.144c.063-.18.138-.354.52-1.237l.019-.044a2 2 0 00-3.672-1.588l-.024.057c-.407.942-.507 1.173-.592 1.41l-.088.26-.014.043C2.129 7.943 2 8.817 2 10c0 4.413 2.382 8.27 5.93 10.354a45.96 45.96 0 01.553 2.333c.84 4.443.773 9.217-.795 13.633a19.428 19.428 0 01-2.32 4.56 2 2 0 003.292 2.272 23.426 23.426 0 002.798-5.494c1.84-5.181 1.916-10.634.947-15.763.522.07 1.054.105 1.595.105a11.99 11.99 0 0010-5.364A11.989 11.989 0 0034 22c.377 0 .75-.017 1.115-.034.165-.008.328-.016.489-.022-.96 5.08-.883 10.533.956 15.714a23.423 23.423 0 002.798 5.494 2 2 0 103.292-2.272 19.427 19.427 0 01-2.32-4.56c-1.568-4.416-1.635-9.19-.796-13.633zM10 13a2 2 0 104 0 2 2 0 00-4 0zm26 2a2 2 0 110-4 2 2 0 010 4zM24 34c-1.112 0-2 .895-2 1.998v2.004a2 2 0 004 0v-2.004A2 2 0 0024 34z" fill="#000"/></svg>