<svg width="48" height="48" fill="none" xmlns="http://www.w3.org/2000/svg"><path fill-rule="evenodd" clip-rule="evenodd" d="M26 42c0 1.104-.888 2-2 2-1.105 0-2-.902-2-2V27.38A12.956 12.956 0 0113 31a12.946 12.946 0 01-8.191-2.905 101.08 101.08 0 001.086 5.948 66.267 66.267 0 001.375 5.431c.162.535.573 1.745.596 1.807a2 2 0 11-3.732 1.438c-.147-.38-.388-1.08-.693-2.086a70.905 70.905 0 01-1.46-5.76C1.23 31.318.574 27.434.21 23.217a50.988 50.988 0 01-.19-4.507A13.21 13.21 0 010 18c0-.125.012-.248.034-.367a45.309 45.309 0 011.052-8.754c.387-1.733.783-2.962 1.067-3.645a2 2 0 113.694 1.532c-.04.096-.66 2.102-.857 2.984-.577 2.584-.95 5.531-.974 8.793A9 9 0 0022 18a2 2 0 014 0 9 9 0 0017.999.147 41.61 41.61 0 00-.97-8.397c-.196-.882-.817-2.888-.857-2.984a2 2 0 113.695-1.532c.283.683.68 1.912 1.066 3.645a45.365 45.365 0 011.056 8.915A2 2 0 0148 18c0 .09 0 .18-.003.269a50.849 50.849 0 01-.187 4.949c-.363 4.217-1.02 8.101-1.772 11.654a70.287 70.287 0 01-1.46 5.761 32.572 32.572 0 01-.692 2.086 2 2 0 01-3.733-1.438 67.82 67.82 0 00.597-1.806 66.285 66.285 0 001.375-5.432c.4-1.889.775-3.877 1.088-5.966A12.946 12.946 0 0135 31a12.956 12.956 0 01-9-3.62V42z" fill="#000"/></svg>