<svg width="142" height="25" fill="none" xmlns="http://www.w3.org/2000/svg"><path d="M0 24.534V0h10.933c4.66 0 7.056 2.981 7.056 6.246 0 3.048-1.913 5.146-4.227 5.63 2.646.4 4.71 2.947 4.71 5.995 0 3.715-2.43 6.663-7.123 6.663H0zM12.664 7.179c0-1.516-1.098-2.582-2.862-2.582H5.225v5.146h4.577c1.764 0 2.862-.982 2.862-2.564zm.483 9.96c0-1.55-1.099-2.799-3.129-2.799H5.225v5.597h4.81c1.93 0 3.112-1.033 3.112-2.798zm6.756.283V6.762h4.693v10.51c0 2.115 1.281 3.647 3.777 3.647 2.463 0 3.761-1.532 3.761-3.647V6.762h4.676v10.643c0 4.464-2.679 7.595-8.42 7.595s-8.487-3.165-8.487-7.578zm18.455 7.112v-3.498l8.005-10.193h-8.005v-4.08H52.72v3.347l-8.155 10.343h8.304v4.08H38.36zm16.042 0v-3.498l8.005-10.193H54.4v-4.08h14.362v3.347l-8.154 10.343h8.304v4.08H54.4zm16.259 0V0h17.007v4.597H75.884v5.146h8.87v4.597h-8.87v10.194H70.66zm15.41-8.894c0-5.147 3.827-9.31 9.186-9.31 5.325 0 8.886 3.98 8.886 9.743v1.099H90.945c.332 2.165 2.096 3.98 5.108 3.98 1.515 0 3.562-.632 4.71-1.732l2.097 3.098c-1.764 1.616-4.56 2.465-7.306 2.465-5.408 0-9.485-3.647-9.485-9.343zm9.186-5.48c-2.896 0-4.16 2.015-4.344 3.78h8.754c-.15-1.698-1.332-3.78-4.41-3.78zm10.151 5.48c0-5.147 3.827-9.31 9.186-9.31 5.325 0 8.886 3.98 8.886 9.743v1.099h-13.196c.333 2.165 2.097 3.98 5.109 3.98 1.514 0 3.561-.632 4.709-1.732l2.097 3.098c-1.764 1.616-4.56 2.465-7.306 2.465-5.408 0-9.485-3.647-9.485-9.343zm9.186-5.48c-2.896 0-4.16 2.015-4.344 3.78h8.754c-.15-1.698-1.332-3.78-4.41-3.78zm10.6 14.407V6.729h7.156c5.608 0 9.652 3.364 9.652 8.91 0 5.53-4.027 8.928-9.619 8.928h-7.189zm12.265-8.927c0-2.765-1.664-5.064-4.926-5.064h-2.895V20.72h2.895c3.112 0 4.926-2.431 4.926-5.08z" fill="#E32"/></svg>