<svg width="32" height="32" viewBox="0 0 32 32" fill="none" xmlns="http://www.w3.org/2000/svg">
<path d="M16 32C12.8355 32 9.74207 31.0616 7.11088 29.3035C4.4797 27.5454 2.42894 25.0466 1.21793 22.1229C0.0069327 19.1993 -0.309921 15.9823 0.307443 12.8786C0.924806 9.77486 2.44866 6.92394 4.6863 4.6863C6.92394 2.44866 9.77486 0.924806 12.8786 0.307443C15.9823 -0.309921 19.1993 0.0069327 22.1229 1.21793C25.0466 2.42894 27.5454 4.4797 29.3035 7.11088C31.0616 9.74207 32 12.8355 32 16C32 20.2435 30.3143 24.3131 27.3137 27.3137C24.3131 30.3143 20.2435 32 16 32ZM16 2.13334C13.2574 2.13334 10.5765 2.94661 8.2961 4.47029C6.01574 5.99398 4.23841 8.15966 3.18888 10.6935C2.13934 13.2273 1.86474 16.0154 2.39978 18.7053C2.93483 21.3951 4.2555 23.8659 6.19479 25.8052C8.13408 27.7445 10.6049 29.0652 13.2948 29.6002C15.9846 30.1353 18.7727 29.8607 21.3065 28.8111C23.8403 27.7616 26.006 25.9843 27.5297 23.7039C29.0534 21.4235 29.8667 18.7426 29.8667 16C29.8667 12.3223 28.4057 8.79529 25.8052 6.19479C23.2047 3.59429 19.6777 2.13334 16 2.13334Z" fill="white"/>
<path d="M16.0002 24L10.8269 16L16.0002 8L21.1736 16L16.0002 24ZM13.3656 16L16.0002 20.064L18.6349 16L16.0002 11.936L13.3656 16Z" fill="white"/>
</svg>
