<svg width="48" height="48" fill="none" xmlns="http://www.w3.org/2000/svg"><path fill-rule="evenodd" clip-rule="evenodd" d="M22 25.99v16.02A2 2 0 0024 44c1.112 0 2-.891 2-1.99V25.99c0-.064-.003-.129-.01-.193 2.496-.568 4.484-2.293 5.994-4.75 1.048-1.706 1.668-3.386 1.958-4.57a2 2 0 10-3.884-.954 10.78 10.78 0 01-.334 1.036 13.566 13.566 0 01-1.148 2.395c-.755 1.228-1.608 2.11-2.576 2.6v-1.556a2 2 0 00-4 0v1.47c-.953-.509-1.793-1.37-2.536-2.54a13.302 13.302 0 01-1.183-2.389c-.184-.485-.297-.85-.342-1.03a2 2 0 00-3.878.981c.3 1.189.941 2.873 2.026 4.583 1.507 2.372 3.472 4.056 5.928 4.671a2.01 2.01 0 00-.015.247zM1.086 8.88c.387-1.733.783-2.962 1.067-3.645a2 2 0 113.694 1.532c-.04.096-.66 2.102-.857 2.984-.822 3.685-1.233 8.11-.8 13.133.348 4.05.985 7.764 1.705 11.16a66.313 66.313 0 001.375 5.431c.162.535.572 1.745.596 1.807a2 2 0 11-3.732 1.438 32.51 32.51 0 01-.693-2.086 70.905 70.905 0 01-1.46-5.76C1.23 31.318.573 27.434.21 23.217c-.469-5.444-.031-10.268.877-14.34zm45.847 0c.909 4.07 1.346 8.895.877 14.339-.363 4.217-1.02 8.101-1.772 11.654a70.246 70.246 0 01-1.46 5.761 32.442 32.442 0 01-.692 2.086 2 2 0 11-3.733-1.438 67.82 67.82 0 00.597-1.806 66.326 66.326 0 001.375-5.432c.72-3.396 1.356-7.11 1.705-11.16.433-5.023.022-9.448-.8-13.133-.197-.882-.818-2.888-.858-2.984a2 2 0 113.695-1.532c.283.683.68 1.912 1.066 3.645z" fill="#000"/></svg>