<svg width="48" height="48" fill="none" xmlns="http://www.w3.org/2000/svg"><path fill-rule="evenodd" clip-rule="evenodd" d="M22 8H11.99L12 40h23.996S36 28.343 36 22H24a2 2 0 01-2-2V8zm4 10h10L26 8v10zM11.99 4h14.616c.551 0 1.318.319 1.7.702l10.992 10.996c.388.387.702 1.158.702 1.7v22.604A3.999 3.999 0 0135.996 44H12.004A4.006 4.006 0 018 40V8c0-2.21 1.792-4 3.99-4zm18.973 26a3 3 0 110-6 3 3 0 010 6zM17.89 27.945c.455-1.012 1.374-1.121 2.046-.253l2.882 3.723a2.062 2.062 0 002.836.4l.578-.422a1.842 1.842 0 012.678.511l2.774 4.407c.587.933.167 1.689-.938 1.689H15.37c-1.105 0-1.634-.817-1.178-1.831l3.7-8.224z" fill="#DADADA"/></svg>