<svg width="48" height="48" viewBox="0 0 48 48" fill="none" xmlns="http://www.w3.org/2000/svg">
<path fill-rule="evenodd" clip-rule="evenodd" d="M22 8H11.9909L12 40L35.9957 40C35.9957 40 36.0002 28.3434 36.0001 22H24C22.8954 22 22 21.1046 22 20V8ZM26 18H36L26 8V18ZM11.9909 4H26.6056C27.1574 4 27.9236 4.31898 28.3067 4.7022L39.2981 15.6977C39.6857 16.0855 40 16.8559 40 17.3985V40.0015C40 42.2098 38.211 44 35.9957 44H12.0043C9.79277 44 8 42.2036 8 40V8.00003C8 5.79087 9.79176 4 11.9909 4ZM30.9626 30C29.3057 30 27.9626 28.6569 27.9626 27C27.9626 25.3431 29.3057 24 30.9626 24C32.6194 24 33.9626 25.3431 33.9626 27C33.9626 28.6569 32.6194 30 30.9626 30ZM17.8912 27.9448C18.3461 26.9335 19.2647 26.8239 19.9367 27.6918L22.8188 31.4145C23.4936 32.2861 24.7568 32.4702 25.6554 31.8146L26.2334 31.3929C27.1252 30.7423 28.3269 30.9755 28.9113 31.9041L31.6846 36.3107C32.2717 37.2437 31.8519 38 30.7468 38H15.3696C14.2645 38 13.7361 37.183 14.1923 36.1688L17.8912 27.9448Z" fill="#DADADA"/>
</svg>
