<svg width="205" height="60" fill="none" xmlns="http://www.w3.org/2000/svg"><path opacity=".8" fill="#FF5C00" d="M70 14H56v14h14z"/><g filter="url(#filter0_b_10:118)"><path fill="#fff" fill-opacity=".48" d="M70 28H56v14h14z"/></g><g filter="url(#filter1_b_10:118)"><path fill="#fff" fill-opacity=".11" d="M14 0H0v14h14z"/></g><g filter="url(#filter2_b_10:118)"><path fill="#fff" fill-opacity=".11" d="M98 28H84v14h14z"/></g><path opacity=".9" fill="#FF5C00" d="M56 14H42v14h14z"/><path opacity=".7" fill="#FF5C00" d="M56 28H42v14h14z"/><path opacity=".8" fill="#FF5C00" d="M42 14H28v14h14z"/><path fill="#FF5C00" d="M42 28H28v14h14zm14 14H42v14h14z"/><g filter="url(#filter3_b_10:118)"><path fill="#fff" fill-opacity=".48" d="M28 14H14v14h14z"/></g><g filter="url(#filter4_b_10:118)"><path fill="#fff" fill-opacity=".48" d="M84 14H70v14h14z"/></g><g filter="url(#filter5_b_10:118)"><path fill="#fff" fill-opacity=".22" d="M14 28H0v14h14z"/></g><path opacity=".4" fill="#FF5C00" d="M28 28H14v14h14z"/><path d="M74.404 39.344c3 0 5.304.72 6.912 2.16 1.608 1.416 2.412 3.564 2.412 6.444V59h-5.256v-2.412c-1.056 1.8-3.024 2.7-5.904 2.7-1.488 0-2.784-.252-3.888-.756-1.08-.504-1.908-1.2-2.484-2.088-.576-.888-.864-1.896-.864-3.024 0-1.8.672-3.216 2.016-4.248 1.368-1.032 3.468-1.548 6.3-1.548h4.464c0-1.224-.372-2.16-1.116-2.808-.744-.672-1.86-1.008-3.348-1.008a9.62 9.62 0 00-3.06.504c-.984.312-1.824.744-2.52 1.296l-2.016-3.924c1.056-.744 2.316-1.32 3.78-1.728a17.212 17.212 0 014.572-.612zm-.432 16.164c.96 0 1.812-.216 2.556-.648.744-.456 1.272-1.116 1.584-1.98V50.9H74.26c-2.304 0-3.456.756-3.456 2.268 0 .72.276 1.296.828 1.728.576.408 1.356.612 2.34.612zm14.839-15.876h5.616V59H88.81V39.632zm2.808-2.7c-1.032 0-1.872-.3-2.52-.9-.648-.6-.972-1.344-.972-2.232 0-.888.324-1.632.972-2.232.648-.6 1.488-.9 2.52-.9s1.872.288 2.52.864c.648.576.972 1.296.972 2.16 0 .936-.324 1.716-.972 2.34-.648.6-1.488.9-2.52.9z" fill="#FF5C00"/><path d="M121.606 39.344c2.4 0 4.332.72 5.796 2.16 1.488 1.44 2.232 3.576 2.232 6.408V59h-5.616V48.776c0-1.536-.336-2.676-1.008-3.42-.672-.768-1.644-1.152-2.916-1.152-1.416 0-2.544.444-3.384 1.332-.84.864-1.26 2.16-1.26 3.888V59h-5.616V39.632h5.364V41.9c.744-.816 1.668-1.44 2.772-1.872 1.104-.456 2.316-.684 3.636-.684zm32.631.288V59h-5.328v-2.304a7.643 7.643 0 01-2.664 1.944c-1.032.432-2.148.648-3.348.648-2.544 0-4.56-.732-6.048-2.196-1.488-1.464-2.232-3.636-2.232-6.516V39.632h5.616v10.116c0 3.12 1.308 4.68 3.924 4.68 1.344 0 2.424-.432 3.24-1.296.816-.888 1.224-2.196 1.224-3.924v-9.576h5.616zm24.931-7.344V59h-5.364v-2.232c-1.392 1.68-3.408 2.52-6.048 2.52-1.824 0-3.48-.408-4.968-1.224-1.464-.816-2.616-1.98-3.456-3.492-.84-1.512-1.26-3.264-1.26-5.256 0-1.992.42-3.744 1.26-5.256.84-1.512 1.992-2.676 3.456-3.492 1.488-.816 3.144-1.224 4.968-1.224 2.472 0 4.404.78 5.796 2.34v-9.396h5.616zm-10.44 22.392c1.416 0 2.592-.48 3.528-1.44.936-.984 1.404-2.292 1.404-3.924 0-1.632-.468-2.928-1.404-3.888-.936-.984-2.112-1.476-3.528-1.476-1.44 0-2.628.492-3.564 1.476-.936.96-1.404 2.256-1.404 3.888 0 1.632.468 2.94 1.404 3.924.936.96 2.124 1.44 3.564 1.44zm34.609-5.292c0 .072-.036.576-.108 1.512h-14.652c.264 1.2.888 2.148 1.872 2.844.984.696 2.208 1.044 3.672 1.044 1.008 0 1.896-.144 2.664-.432.792-.312 1.524-.792 2.196-1.44l2.988 3.24c-1.824 2.088-4.488 3.132-7.992 3.132-2.184 0-4.116-.42-5.796-1.26-1.68-.864-2.976-2.052-3.888-3.564-.912-1.512-1.368-3.228-1.368-5.148 0-1.896.444-3.6 1.332-5.112a9.451 9.451 0 013.708-3.564c1.584-.864 3.348-1.296 5.292-1.296 1.896 0 3.612.408 5.148 1.224a8.786 8.786 0 013.6 3.528c.888 1.512 1.332 3.276 1.332 5.292zm-10.044-5.796c-1.272 0-2.34.36-3.204 1.08-.864.72-1.392 1.704-1.584 2.952h9.54c-.192-1.224-.72-2.196-1.584-2.916-.864-.744-1.92-1.116-3.168-1.116z" fill="#000"/><defs><filter id="filter0_b_10:118" x="52" y="24" width="22" height="22" filterUnits="userSpaceOnUse" color-interpolation-filters="sRGB"><feFlood flood-opacity="0" result="BackgroundImageFix"/><feGaussianBlur in="BackgroundImage" stdDeviation="2"/><feComposite in2="SourceAlpha" operator="in" result="effect1_backgroundBlur_10:118"/><feBlend in="SourceGraphic" in2="effect1_backgroundBlur_10:118" result="shape"/></filter><filter id="filter1_b_10:118" x="-4" y="-4" width="22" height="22" filterUnits="userSpaceOnUse" color-interpolation-filters="sRGB"><feFlood flood-opacity="0" result="BackgroundImageFix"/><feGaussianBlur in="BackgroundImage" stdDeviation="2"/><feComposite in2="SourceAlpha" operator="in" result="effect1_backgroundBlur_10:118"/><feBlend in="SourceGraphic" in2="effect1_backgroundBlur_10:118" result="shape"/></filter><filter id="filter2_b_10:118" x="80" y="24" width="22" height="22" filterUnits="userSpaceOnUse" color-interpolation-filters="sRGB"><feFlood flood-opacity="0" result="BackgroundImageFix"/><feGaussianBlur in="BackgroundImage" stdDeviation="2"/><feComposite in2="SourceAlpha" operator="in" result="effect1_backgroundBlur_10:118"/><feBlend in="SourceGraphic" in2="effect1_backgroundBlur_10:118" result="shape"/></filter><filter id="filter3_b_10:118" x="10" y="10" width="22" height="22" filterUnits="userSpaceOnUse" color-interpolation-filters="sRGB"><feFlood flood-opacity="0" result="BackgroundImageFix"/><feGaussianBlur in="BackgroundImage" stdDeviation="2"/><feComposite in2="SourceAlpha" operator="in" result="effect1_backgroundBlur_10:118"/><feBlend in="SourceGraphic" in2="effect1_backgroundBlur_10:118" result="shape"/></filter><filter id="filter4_b_10:118" x="66" y="10" width="22" height="22" filterUnits="userSpaceOnUse" color-interpolation-filters="sRGB"><feFlood flood-opacity="0" result="BackgroundImageFix"/><feGaussianBlur in="BackgroundImage" stdDeviation="2"/><feComposite in2="SourceAlpha" operator="in" result="effect1_backgroundBlur_10:118"/><feBlend in="SourceGraphic" in2="effect1_backgroundBlur_10:118" result="shape"/></filter><filter id="filter5_b_10:118" x="-4" y="24" width="22" height="22" filterUnits="userSpaceOnUse" color-interpolation-filters="sRGB"><feFlood flood-opacity="0" result="BackgroundImageFix"/><feGaussianBlur in="BackgroundImage" stdDeviation="2"/><feComposite in2="SourceAlpha" operator="in" result="effect1_backgroundBlur_10:118"/><feBlend in="SourceGraphic" in2="effect1_backgroundBlur_10:118" result="shape"/></filter></defs></svg>