<svg width="48" height="48" fill="none" xmlns="http://www.w3.org/2000/svg"><path fill-rule="evenodd" clip-rule="evenodd" d="M17.257 13.292l-1.472.774c-.981.516-1.627.058-1.438-1.044l.282-1.64-1.192-1.161c-.793-.774-.558-1.53.55-1.69l1.646-.24.736-1.491c.49-.994 1.282-1.003 1.777 0l.736 1.492 1.646.239c1.097.16 1.35.909.55 1.69l-1.192 1.161.281 1.64c.188 1.092-.447 1.564-1.437 1.044l-1.473-.774zM35 17l-2.925 1.538c-.981.516-1.625.046-1.438-1.045l.559-3.257-2.366-2.306c-.794-.774-.547-1.532.55-1.69l3.269-.476L34.11 6.8c.491-.995 1.288-.993 1.778 0l1.462 2.963 3.27.475c1.098.16 1.342.918.55 1.69l-2.367 2.307.559 3.257c.187 1.093-.458 1.56-1.438 1.045L35 17zm-9.08 1.124l4.243 4.243a2 2 0 01.006 2.822L13.186 42.172a1.99 1.99 0 01-2.822-.006l-4.243-4.243a2 2 0 01-.006-2.822l16.983-16.983a1.99 1.99 0 012.822.006zm9.865 14.942l1.472-.774 1.473.774c.99.52 1.625.048 1.437-1.044l-.281-1.64 1.191-1.161c.801-.781.548-1.53-.549-1.69l-1.646-.24-.736-1.491c-.495-1.003-1.286-.994-1.777 0l-.736 1.492-1.647.239c-1.107.16-1.342.916-.549 1.69l1.192 1.161-.282 1.64c-.189 1.102.457 1.56 1.438 1.044zM10.366 36.52l10.51-10.512 1.407 1.407L11.77 37.93l-1.404-1.411z" fill="#000"/></svg>