<svg width="207" height="57" fill="none" xmlns="http://www.w3.org/2000/svg"><g clip-path="url(#clip0_10:208)"><path d="M202.682.018h-84.173c-2.614.287-4.061 1.857-4.318 4.734v47.496c.257 2.866 1.692 4.436 4.295 4.734h84.219c2.603-.298 4.038-1.868 4.295-4.734V4.752c-.257-2.866-1.704-4.447-4.318-4.734z" fill="#F7971D"/><path d="M198.468 22.139c-1.424-1.548-3.349-2.545-5.438-3.003a10.492 10.492 0 00-2.055-.298c-2.766-.23-6.302.836-7.959 2.2l.397-11.117h-6.723v34.43h6.244V42.45c1.436 1.146 3.735 2.464 7.271 2.464h.665c2.953 0 5.463-1.146 7.528-3.439 2.066-2.315 3.093-5.593 3.093-9.857 0-4.126-1.004-7.278-3.034-9.478h.011zm-5.427 15.702c-1.027 1.238-2.299 1.857-3.781 1.857-1.926 0-3.478-.871-4.634-2.636-.84-1.227-1.26-3.14-1.26-5.731 0-2.499.537-4.355 1.599-5.593 1.05-1.227 2.404-1.834 4.015-1.834 1.634 0 2.988.619 4.038 1.88 1.05 1.26 1.576 3.323 1.576 6.166 0 2.682-.526 4.642-1.564 5.88l.011.011zm-27.182-7.92c0 3.553-.163 5.811-.502 6.728-.35.917-.968 1.685-1.867 2.292-.934.63-1.949.917-3.093.917-1.004 0-1.832-.229-2.486-.688a3.47 3.47 0 01-1.354-1.868c-.233-.802-.373-2.934-.373-6.453v-11.46h-6.723v15.817c0 2.338.304 4.172.91 5.501.607 1.33 1.588 2.373 2.942 3.095 1.353.745 2.882 1.112 4.598 1.112.257 0 .502 0 .759-.023 4.295-.115 6.536-2.029 7.656-3.29v2.751h6.244V19.388h-6.723l.012 10.533zm-21.942-8.08c-.618-.883-1.552-1.605-2.801-2.178-1.12-.493-2.369-.768-3.735-.825h-.07c-2.836-.15-6.454.665-8.146 2.258V9.92h-6.723v34.43h6.723V31.858c0-2.097.198-3.69.607-4.756.408-1.078 1.05-1.88 1.926-2.407.875-.539 1.867-.803 2.987-.803.981 0 1.798.207 2.451.62a3.326 3.326 0 011.343 1.684c.256.688.385 2.361.385 4.974v13.181h6.711V29.703c0-2.223-.117-3.874-.351-4.928-.233-1.077-.653-2.063-1.283-2.923l-.024-.011zm-37.873 1.513a7.637 7.637 0 00-1.377-2.912c-.665-.86-1.634-1.558-2.941-2.108s-2.708-.826-4.272-.826c-2.824-.16-7.422.894-8.8 3.06v-2.475h-6.57V44.34h7.072V32.454c0-2.934.163-4.928.525-6.029.35-1.088 1.027-1.948 1.984-2.636a5.992 5.992 0 013.315-.974c.934 0 1.75.23 2.451.688.665.458 1.167 1.1 1.459 1.948.303.802.467 2.636.467 5.479v13.387h7.061V28.03c0-2.029-.14-3.588-.397-4.676h.023zM72.361 17.6c-2.1.264-4.085 1.925-4.96 2.98v-2.487h-6.57V44.34h7.072v-8.104c0-4.47.198-7.404.584-8.802.396-1.398.933-2.361 1.633-2.9.677-.55 1.518-.802 2.51-.802 1.027 0 2.124.367 3.314 1.123l2.194-6.052c-1.493-.87-3.034-1.306-4.668-1.306-.373 0-.747.034-1.109.091v.012zm-28.828-.103c-2.626 0-4.995.573-7.119 1.696-2.1 1.146-3.758 2.785-4.902 4.929-1.167 2.177-1.75 4.4-1.75 6.716 0 3.014.583 5.57 1.75 7.68 1.144 2.085 2.836 3.667 5.066 4.767a15.683 15.683 0 007.002 1.628c3.968 0 7.236-1.307 9.85-3.897 2.615-2.59 3.91-5.914 3.91-9.891 0-3.932-1.283-7.187-3.874-9.766-2.568-2.579-5.883-3.862-9.92-3.862h-.013zm4.68 19.69c-1.26 1.376-2.8 2.064-4.645 2.064-1.843 0-3.384-.688-4.668-2.063-1.249-1.376-1.867-3.382-1.867-5.983 0-2.602.618-4.585 1.867-5.983 1.284-1.376 2.825-2.063 4.669-2.063 1.844 0 3.384.688 4.645 2.063 1.248 1.375 1.867 3.358 1.867 5.937 0 2.636-.619 4.642-1.867 6.029zM20.81 8.66c-1.377-.367-4.319-.55-8.87-.55H0v36.218h7.446V30.666h4.855c3.385 0 5.953-.172 7.727-.516 1.307-.286 2.59-.86 3.851-1.719 1.26-.86 2.334-2.063 3.151-3.576.817-1.513 1.226-3.381 1.226-5.616 0-2.865-.7-5.227-2.124-7.049-1.436-1.834-3.198-3.003-5.31-3.553l-.012.023zm-1.062 13.502c-.549.802-1.32 1.398-2.311 1.776-.992.378-2.953.573-5.894.573H7.458v-10.28h3.618c2.684 0 4.458.091 5.345.263 1.214.206 2.218.745 3 1.605.782.848 1.167 1.948 1.167 3.255 0 1.077-.268 2.017-.817 2.82" fill="#000"/></g><defs><clipPath id="clip0_10:208"><path fill="#fff" d="M0 0h207v57H0z"/></clipPath></defs></svg>