<svg width="133" height="23" fill="none" xmlns="http://www.w3.org/2000/svg"><path d="M0 .08v6.153h4.125V22.46h6.972V.08H0zm22.87 8.505h-3.263V6.223h1.642V.08h-8.604v22.38h6.962v-8.463h3.263v8.463h6.982V.08H22.87v8.505zm8.51 13.875h12.915v-6.165H38.04V13.69h3.98V8.585h-3.98V6.233h6.255V.08H31.38v22.38zM99.21 7.653c0-4.83-3.502-7.573-8.469-7.573H82.98v22.37h6.972v-5.73l3.99 5.73h7.865l-5.652-8.58c2.036-1.133 3.055-3.199 3.055-6.217zm-9.28 2.478V5.97c.967 0 2.152.296 2.505 1.377.031.095.052.2.083.307 0 .01 0 .032.01.042.01.106.032.233.032.36 0 1.663-1.486 2.076-2.63 2.076zm-31.826 3.58h-.062l-.499-1.843-1.558-5.624h2.743L60.536.08H46.612l7.98 22.37h7.15l.861-2.395s3.824-10.57 5.913-16.332V22.45H81.43v-6.164h-6.255V13.68h3.97V8.585h-3.97V6.233h6.255V.07H62.136l-4.032 13.642zM133 6.244V.09h-12.916v22.37H133v-6.165h-6.266V13.69h3.98V8.606h-3.98V6.244" fill="#000"/><path d="M118.744 17.768v-9.12h-9.85v5.084h3.668v1.812c-.281.254-.884.391-1.507.391-2.556 0-4.447-2.054-4.447-4.565 0-2.51 1.839-4.734 4.395-4.734 1.548 0 5.216.01 5.216.01V.017h-1.673c-3.117 0-6.224-.254-9.081 1.25-2.255 1.186-4.042 3.199-4.988 5.592a12.285 12.285 0 00-.83 4.449C99.646 17.65 104.53 23 110.857 23c3.138 0 6.203-1.197 7.876-2.69.01-1.547.01-1.78.01-2.542z" fill="#000"/></svg>